<?xml version="1.0" standalone="no"?><!DOCTYPE svg PUBLIC "-//W3C//DTD SVG 1.1//EN" "http://www.w3.org/Graphics/SVG/1.1/DTD/svg11.dtd"><svg t="1782799219901" class="icon" viewBox="0 0 1024 1024" version="1.1" xmlns="http://www.w3.org/2000/svg" p-id="6441" width="48" height="48" xmlns:xlink="http://www.w3.org/1999/xlink"><path d="M790.755556 420.598519h9.481481c80.402963 0 146.014815-65.611852 146.014815-146.014815a146.394074 146.394074 0 0 0-146.014815-146.394074h-5.688889v-31.478519c0-21.997037-17.825185-39.822222-39.822222-39.822222H269.274074c-22.376296 0-39.822222 17.825185-39.822222 39.822222v31.478519H223.762963c-80.782222 0-146.014815 65.611852-146.014815 146.394074 0 80.402963 65.232593 146.014815 146.014815 146.014815h9.481481c16.346074 110.250667 98.531556 198.504296 200.89363 227.555555-3.527111 29.658074-9.822815 56.547556-20.404148 80.630519H369.891556a79.378963 79.378963 0 0 0-79.530667 79.151407v80.478815H249.931852a39.329185 39.329185 0 0 0 0 78.65837h524.136296a39.329185 39.329185 0 0 0 0-78.65837h-40.466963v-80.478815a79.378963 79.378963 0 0 0-79.530666-79.151407h-43.766519c-10.619259-24.082963-16.914963-50.972444-20.442074-80.630519a281.751704 281.751704 0 0 0 200.89363-227.555555z m9.481481-216.557038c38.684444 0 70.162963 31.478519 70.162963 70.542223 0 38.684444-31.478519 70.162963-70.162963 70.162963h-5.688889V204.041481h5.688889zM153.6 274.583704c0-39.063704 31.478519-70.542222 70.162963-70.542223h5.688889v140.705186H223.762963c-38.684444 0-70.162963-31.478519-70.162963-70.162963z m266.24 102.02074l7.585185-45.131851-32.616296-31.857778a35.84 35.84 0 0 1-8.722963-36.408889c4.171852-13.274074 15.17037-22.376296 28.444444-24.272593l45.131852-6.826666 20.48-40.96c6.068148-12.136296 18.204444-19.721481 31.857778-19.721482s26.168889 7.585185 32.237037 20.100741l19.721482 40.580741 45.131851 6.826666c13.653333 1.896296 24.651852 10.998519 28.823704 24.272593 4.551111 12.894815 0.758519 26.927407-9.102222 36.408889l-32.616296 31.857778 7.964444 44.752592a35.271111 35.271111 0 0 1-14.411852 34.891852c-11.377778 8.343704-25.78963 9.102222-37.546667 2.654815l-40.201481-21.238519-40.201481 21.617778a35.271111 35.271111 0 0 1-37.546667-2.654815 35.195259 35.195259 0 0 1-14.411852-34.891852z" p-id="6442" fill="#f4ea2a"></path></svg>